<?xml version="1.0" encoding="UTF-8"?><svg xmlns="http://www.w3.org/2000/svg" xmlns:xlink="http://www.w3.org/1999/xlink" fill-opacity="1" color-rendering="auto" color-interpolation="auto" text-rendering="auto" stroke="black" stroke-linecap="square" width="933" stroke-miterlimit="10" shape-rendering="auto" stroke-opacity="1" fill="black" stroke-dasharray="none" font-weight="normal" stroke-width="1" height="945" font-family="'Dialog'" font-style="normal" stroke-linejoin="miter" font-size="12px" stroke-dashoffset="0" image-rendering="auto">
  <!--Generated by ySVG 2.5-->
  <defs id="genericDefs"/>
  <g>
    <defs id="defs1">
      <clipPath clipPathUnits="userSpaceOnUse" id="clipPath1">
        <path d="M0 0 L933 0 L933 945 L0 945 L0 0 Z"/>
      </clipPath>
      <clipPath clipPathUnits="userSpaceOnUse" id="clipPath2">
        <path d="M103 60 L1036 60 L1036 1005 L103 1005 L103 60 Z"/>
      </clipPath>
    </defs>
    <g fill="white" text-rendering="geometricPrecision" shape-rendering="geometricPrecision" transform="translate(-103,-60)" stroke="white">
      <rect x="103" width="933" height="945" y="60" clip-path="url(#clipPath2)" stroke="none"/>
    </g>
    <g fill="silver" text-rendering="geometricPrecision" shape-rendering="geometricPrecision" transform="matrix(1,0,0,1,-103,-60)" stroke="silver">
      <rect x="118.5" y="666.2139" clip-path="url(#clipPath2)" width="439.6087" rx="4" ry="4" height="213.8125" stroke="none"/>
    </g>
    <g text-rendering="geometricPrecision" stroke-miterlimit="1.45" shape-rendering="geometricPrecision" transform="matrix(1,0,0,1,-103,-60)" stroke-linecap="butt">
      <rect x="118.5" y="666.2139" clip-path="url(#clipPath2)" fill="none" width="439.6087" rx="4" ry="4" height="213.8125"/>
      <text x="124.5" xml:space="preserve" y="683.3526" clip-path="url(#clipPath2)" font-family="sans-serif" stroke="none">Optimal Control</text>
    </g>
    <g fill="silver" text-rendering="geometricPrecision" shape-rendering="geometricPrecision" transform="matrix(1,0,0,1,-103,-60)" stroke="silver">
      <rect x="118.5" y="75.75" clip-path="url(#clipPath2)" width="902.2086" rx="4" ry="4" height="577.7314" stroke="none"/>
    </g>
    <g text-rendering="geometricPrecision" stroke-miterlimit="1.45" shape-rendering="geometricPrecision" transform="matrix(1,0,0,1,-103,-60)" stroke-linecap="butt">
      <rect x="118.5" y="75.75" clip-path="url(#clipPath2)" fill="none" width="902.2086" rx="4" ry="4" height="577.7314"/>
      <text x="124.5" xml:space="preserve" y="92.8887" clip-path="url(#clipPath2)" font-family="sans-serif" stroke="none">Reinforcement Learning</text>
      <ellipse rx="267.734" fill="none" ry="224.875" clip-path="url(#clipPath2)" cx="413.4465" cy="311.6948"/>
      <text x="376.2278" xml:space="preserve" y="114.9585" clip-path="url(#clipPath2)" font-family="sans-serif" stroke="none">Value-based</text>
      <ellipse rx="286.2573" fill="none" ry="277.7959" clip-path="url(#clipPath2)" cx="700.136" cy="364.6157"/>
      <text x="662.387" xml:space="preserve" y="114.9585" clip-path="url(#clipPath2)" font-family="sans-serif" stroke="none">Policy-based</text>
    </g>
    <g fill="rgb(255,204,0)" text-rendering="geometricPrecision" shape-rendering="geometricPrecision" transform="matrix(1,0,0,1,-103,-60)" stroke="rgb(255,204,0)">
      <rect x="187.3405" width="200" height="217.7869" y="202.8013" clip-path="url(#clipPath2)" stroke="none"/>
    </g>
    <g text-rendering="geometricPrecision" stroke-miterlimit="1.45" shape-rendering="geometricPrecision" transform="matrix(1,0,0,1,-103,-60)" stroke-linecap="butt">
      <rect fill="none" x="187.3405" width="200" height="217.7869" y="202.8013" clip-path="url(#clipPath2)"/>
      <text x="255.8698" xml:space="preserve" y="219.94" clip-path="url(#clipPath2)" font-family="sans-serif" stroke="none">Q-learning</text>
    </g>
    <g fill="rgb(255,204,153)" text-rendering="geometricPrecision" shape-rendering="geometricPrecision" transform="matrix(1,0,0,1,-103,-60)" stroke="rgb(255,204,153)">
      <rect x="213.3405" width="153" height="30" y="223.8013" clip-path="url(#clipPath2)" stroke="none"/>
    </g>
    <g text-rendering="geometricPrecision" stroke-miterlimit="1.45" shape-rendering="geometricPrecision" transform="matrix(1,0,0,1,-103,-60)" stroke-linecap="butt">
      <rect fill="none" x="213.3405" width="153" height="30" y="223.8013" clip-path="url(#clipPath2)"/>
      <text x="276.0094" xml:space="preserve" y="242.9556" clip-path="url(#clipPath2)" font-family="sans-serif" stroke="none">DQN</text>
    </g>
    <g fill="rgb(255,204,153)" text-rendering="geometricPrecision" shape-rendering="geometricPrecision" transform="matrix(1,0,0,1,-103,-60)" stroke="rgb(255,204,153)">
      <rect x="213.3405" width="153" height="30" y="262.8013" clip-path="url(#clipPath2)" stroke="none"/>
    </g>
    <g text-rendering="geometricPrecision" stroke-miterlimit="1.45" shape-rendering="geometricPrecision" transform="matrix(1,0,0,1,-103,-60)" stroke-linecap="butt">
      <rect fill="none" x="213.3405" width="153" height="30" y="262.8013" clip-path="url(#clipPath2)"/>
      <text x="252.8414" xml:space="preserve" y="281.9556" clip-path="url(#clipPath2)" font-family="sans-serif" stroke="none">Double DQN</text>
    </g>
    <g fill="rgb(255,204,153)" text-rendering="geometricPrecision" shape-rendering="geometricPrecision" transform="matrix(1,0,0,1,-103,-60)" stroke="rgb(255,204,153)">
      <rect x="213.3405" width="153" height="30" y="301.8013" clip-path="url(#clipPath2)" stroke="none"/>
    </g>
    <g text-rendering="geometricPrecision" stroke-miterlimit="1.45" shape-rendering="geometricPrecision" transform="matrix(1,0,0,1,-103,-60)" stroke-linecap="butt">
      <rect fill="none" x="213.3405" width="153" height="30" y="301.8013" clip-path="url(#clipPath2)"/>
      <text x="246.4225" xml:space="preserve" y="320.9556" clip-path="url(#clipPath2)" font-family="sans-serif" stroke="none">Dueling DDQN</text>
    </g>
    <g fill="rgb(255,204,0)" text-rendering="geometricPrecision" shape-rendering="geometricPrecision" transform="matrix(1,0,0,1,-103,-60)" stroke="rgb(255,204,0)">
      <rect x="134.2436" width="200" height="139" y="703.6201" clip-path="url(#clipPath2)" stroke="none"/>
    </g>
    <g text-rendering="geometricPrecision" stroke-miterlimit="1.45" shape-rendering="geometricPrecision" transform="matrix(1,0,0,1,-103,-60)" stroke-linecap="butt">
      <rect fill="none" x="134.2436" width="200" height="139" y="703.6201" clip-path="url(#clipPath2)"/>
      <text x="165.1997" xml:space="preserve" y="720.7589" clip-path="url(#clipPath2)" font-family="sans-serif" stroke="none">Dynamic Programming</text>
    </g>
    <g fill="rgb(255,204,153)" text-rendering="geometricPrecision" shape-rendering="geometricPrecision" transform="matrix(1,0,0,1,-103,-60)" stroke="rgb(255,204,153)">
      <rect x="157.7436" width="153" height="30" y="747.6201" clip-path="url(#clipPath2)" stroke="none"/>
    </g>
    <g text-rendering="geometricPrecision" stroke-miterlimit="1.45" shape-rendering="geometricPrecision" transform="matrix(1,0,0,1,-103,-60)" stroke-linecap="butt">
      <rect fill="none" x="157.7436" width="153" height="30" y="747.6201" clip-path="url(#clipPath2)"/>
      <text x="189.9438" xml:space="preserve" y="766.7745" clip-path="url(#clipPath2)" font-family="sans-serif" stroke="none">Value Iteration</text>
    </g>
    <g fill="rgb(255,204,153)" text-rendering="geometricPrecision" shape-rendering="geometricPrecision" transform="matrix(1,0,0,1,-103,-60)" stroke="rgb(255,204,153)">
      <rect x="157.7436" width="153" height="30" y="786.6201" clip-path="url(#clipPath2)" stroke="none"/>
    </g>
    <g text-rendering="geometricPrecision" stroke-miterlimit="1.45" shape-rendering="geometricPrecision" transform="matrix(1,0,0,1,-103,-60)" stroke-linecap="butt">
      <rect fill="none" x="157.7436" width="153" height="30" y="786.6201" clip-path="url(#clipPath2)"/>
      <text x="189.4136" xml:space="preserve" y="805.7745" clip-path="url(#clipPath2)" font-family="sans-serif" stroke="none">Policy Iteration</text>
    </g>
    <g fill="rgb(255,204,0)" text-rendering="geometricPrecision" shape-rendering="geometricPrecision" transform="matrix(1,0,0,1,-103,-60)" stroke="rgb(255,204,0)">
      <rect x="701.3435" width="200" height="200" y="173.5284" clip-path="url(#clipPath2)" stroke="none"/>
    </g>
    <g text-rendering="geometricPrecision" stroke-miterlimit="1.45" shape-rendering="geometricPrecision" transform="matrix(1,0,0,1,-103,-60)" stroke-linecap="butt">
      <rect fill="none" x="701.3435" width="200" height="200" y="173.5284" clip-path="url(#clipPath2)"/>
      <text x="756.6891" xml:space="preserve" y="190.6671" clip-path="url(#clipPath2)" font-family="sans-serif" stroke="none">Policy gradient</text>
    </g>
    <g fill="rgb(153,204,255)" text-rendering="geometricPrecision" shape-rendering="geometricPrecision" transform="matrix(1,0,0,1,-103,-60)" stroke="rgb(153,204,255)">
      <rect x="724.8435" width="153" height="30" y="204.5284" clip-path="url(#clipPath2)" stroke="none"/>
    </g>
    <g text-rendering="geometricPrecision" stroke-miterlimit="1.45" shape-rendering="geometricPrecision" transform="matrix(1,0,0,1,-103,-60)" stroke-linecap="butt">
      <rect fill="none" x="724.8435" width="153" height="30" y="204.5284" clip-path="url(#clipPath2)"/>
      <text x="766.8024" xml:space="preserve" y="223.6827" clip-path="url(#clipPath2)" font-family="sans-serif" stroke="none">REINFORCE</text>
    </g>
    <g fill="rgb(255,204,0)" text-rendering="geometricPrecision" shape-rendering="geometricPrecision" transform="matrix(1,0,0,1,-103,-60)" stroke="rgb(255,204,0)">
      <rect x="446.1619" width="200" height="150" y="255.0537" clip-path="url(#clipPath2)" stroke="none"/>
    </g>
    <g text-rendering="geometricPrecision" stroke-miterlimit="1.45" shape-rendering="geometricPrecision" transform="matrix(1,0,0,1,-103,-60)" stroke-linecap="butt">
      <rect fill="none" x="446.1619" width="200" height="150" y="255.0537" clip-path="url(#clipPath2)"/>
      <text x="512.4617" xml:space="preserve" y="272.1924" clip-path="url(#clipPath2)" font-family="sans-serif" stroke="none">Actor-Critic</text>
    </g>
    <g fill="rgb(153,204,255)" text-rendering="geometricPrecision" shape-rendering="geometricPrecision" transform="matrix(1,0,0,1,-103,-60)" stroke="rgb(153,204,255)">
      <rect x="724.8435" width="153" height="30" y="429.8868" clip-path="url(#clipPath2)" stroke="none"/>
    </g>
    <g text-rendering="geometricPrecision" stroke-miterlimit="1.45" shape-rendering="geometricPrecision" transform="matrix(1,0,0,1,-103,-60)" stroke-linecap="butt">
      <rect fill="none" x="724.8435" width="153" height="30" y="429.8868" clip-path="url(#clipPath2)"/>
      <text x="789.2673" xml:space="preserve" y="449.0411" clip-path="url(#clipPath2)" font-family="sans-serif" stroke="none">GPS</text>
    </g>
    <g fill="rgb(153,204,255)" text-rendering="geometricPrecision" shape-rendering="geometricPrecision" transform="matrix(1,0,0,1,-103,-60)" stroke="rgb(153,204,255)">
      <rect x="724.8435" width="153" height="30" y="284.2465" clip-path="url(#clipPath2)" stroke="none"/>
    </g>
    <g text-rendering="geometricPrecision" stroke-miterlimit="1.45" shape-rendering="geometricPrecision" transform="matrix(1,0,0,1,-103,-60)" stroke-linecap="butt">
      <rect fill="none" x="724.8435" width="153" height="30" y="284.2465" clip-path="url(#clipPath2)"/>
      <text x="785.1686" xml:space="preserve" y="303.4008" clip-path="url(#clipPath2)" font-family="sans-serif" stroke="none">TRPO</text>
    </g>
    <g fill="rgb(153,204,255)" text-rendering="geometricPrecision" shape-rendering="geometricPrecision" transform="matrix(1,0,0,1,-103,-60)" stroke="rgb(153,204,255)">
      <rect x="469.6619" width="153" height="30" y="281.0537" clip-path="url(#clipPath2)" stroke="none"/>
    </g>
    <g text-rendering="geometricPrecision" stroke-miterlimit="1.45" shape-rendering="geometricPrecision" transform="matrix(1,0,0,1,-103,-60)" stroke-linecap="butt">
      <rect fill="none" x="469.6619" width="153" height="30" y="281.0537" clip-path="url(#clipPath2)"/>
      <text x="493.8143" xml:space="preserve" y="300.208" clip-path="url(#clipPath2)" font-family="sans-serif" stroke="none">Critic-REINFORCE</text>
    </g>
    <g fill="rgb(153,204,255)" text-rendering="geometricPrecision" shape-rendering="geometricPrecision" transform="matrix(1,0,0,1,-103,-60)" stroke="rgb(153,204,255)">
      <rect x="469.6619" width="153" height="30" y="319.0537" clip-path="url(#clipPath2)" stroke="none"/>
    </g>
    <g text-rendering="geometricPrecision" stroke-miterlimit="1.45" shape-rendering="geometricPrecision" transform="matrix(1,0,0,1,-103,-60)" stroke-linecap="butt">
      <rect fill="none" x="469.6619" width="153" height="30" y="319.0537" clip-path="url(#clipPath2)"/>
      <text x="534.0506" xml:space="preserve" y="338.208" clip-path="url(#clipPath2)" font-family="sans-serif" stroke="none">A3C</text>
    </g>
    <g fill="rgb(153,204,255)" text-rendering="geometricPrecision" shape-rendering="geometricPrecision" transform="matrix(1,0,0,1,-103,-60)" stroke="rgb(153,204,255)">
      <rect x="469.6619" width="153" height="30" y="357.0537" clip-path="url(#clipPath2)" stroke="none"/>
    </g>
    <g text-rendering="geometricPrecision" stroke-miterlimit="1.45" shape-rendering="geometricPrecision" transform="matrix(1,0,0,1,-103,-60)" stroke-linecap="butt">
      <rect fill="none" x="469.6619" width="153" height="30" y="357.0537" clip-path="url(#clipPath2)"/>
      <text x="528.6541" xml:space="preserve" y="376.208" clip-path="url(#clipPath2)" font-family="sans-serif" stroke="none">DDPG</text>
    </g>
    <g fill="rgb(153,204,255)" text-rendering="geometricPrecision" shape-rendering="geometricPrecision" transform="matrix(1,0,0,1,-103,-60)" stroke="rgb(153,204,255)">
      <rect x="213.3405" width="153" height="30" y="379.8013" clip-path="url(#clipPath2)" stroke="none"/>
    </g>
    <g text-rendering="geometricPrecision" stroke-miterlimit="1.45" shape-rendering="geometricPrecision" transform="matrix(1,0,0,1,-103,-60)" stroke-linecap="butt">
      <rect fill="none" x="213.3405" width="153" height="30" y="379.8013" clip-path="url(#clipPath2)"/>
      <text x="277.7965" xml:space="preserve" y="398.9556" clip-path="url(#clipPath2)" font-family="sans-serif" stroke="none">NAF</text>
    </g>
    <g fill="rgb(153,204,255)" text-rendering="geometricPrecision" shape-rendering="geometricPrecision" transform="matrix(1,0,0,1,-103,-60)" stroke="rgb(153,204,255)">
      <rect x="724.8435" width="153" height="30" y="325.7465" clip-path="url(#clipPath2)" stroke="none"/>
    </g>
    <g text-rendering="geometricPrecision" stroke-miterlimit="1.45" shape-rendering="geometricPrecision" transform="matrix(1,0,0,1,-103,-60)" stroke-linecap="butt">
      <rect fill="none" x="724.8435" width="153" height="30" y="325.7465" clip-path="url(#clipPath2)"/>
      <text x="789.3845" xml:space="preserve" y="344.9008" clip-path="url(#clipPath2)" font-family="sans-serif" stroke="none">PPO</text>
    </g>
    <g fill="rgb(255,204,0)" text-rendering="geometricPrecision" shape-rendering="geometricPrecision" transform="matrix(1,0,0,1,-103,-60)" stroke="rgb(255,204,0)">
      <rect x="344.9163" width="200" height="181.25" y="688.2981" clip-path="url(#clipPath2)" stroke="none"/>
    </g>
    <g text-rendering="geometricPrecision" stroke-miterlimit="1.45" shape-rendering="geometricPrecision" transform="matrix(1,0,0,1,-103,-60)" stroke-linecap="butt">
      <rect fill="none" x="344.9163" width="200" height="181.25" y="688.2981" clip-path="url(#clipPath2)"/>
      <text x="400.3411" xml:space="preserve" y="705.4368" clip-path="url(#clipPath2)" font-family="sans-serif" stroke="none">Control Theory</text>
    </g>
    <g fill="rgb(153,204,255)" text-rendering="geometricPrecision" shape-rendering="geometricPrecision" transform="matrix(1,0,0,1,-103,-60)" stroke="rgb(153,204,255)">
      <rect x="368.4163" width="153" height="30" y="720.4231" clip-path="url(#clipPath2)" stroke="none"/>
    </g>
    <g text-rendering="geometricPrecision" stroke-miterlimit="1.45" shape-rendering="geometricPrecision" transform="matrix(1,0,0,1,-103,-60)" stroke-linecap="butt">
      <rect fill="none" x="368.4163" width="153" height="30" y="720.4231" clip-path="url(#clipPath2)"/>
      <text x="414.1312" xml:space="preserve" y="739.5775" clip-path="url(#clipPath2)" font-family="sans-serif" stroke="none">LQR / LQG</text>
    </g>
    <g fill="rgb(153,204,255)" text-rendering="geometricPrecision" shape-rendering="geometricPrecision" transform="matrix(1,0,0,1,-103,-60)" stroke="rgb(153,204,255)">
      <rect x="368.4163" width="153" height="30" y="758.1201" clip-path="url(#clipPath2)" stroke="none"/>
    </g>
    <g text-rendering="geometricPrecision" stroke-miterlimit="1.45" shape-rendering="geometricPrecision" transform="matrix(1,0,0,1,-103,-60)" stroke-linecap="butt">
      <rect fill="none" x="368.4163" width="153" height="30" y="758.1201" clip-path="url(#clipPath2)"/>
      <text x="430.5345" xml:space="preserve" y="777.2745" clip-path="url(#clipPath2)" font-family="sans-serif" stroke="none">iLQG</text>
    </g>
    <g fill="silver" text-rendering="geometricPrecision" shape-rendering="geometricPrecision" transform="matrix(1,0,0,1,-103,-60)" stroke="silver">
      <rect x="570.7715" y="665.195" clip-path="url(#clipPath2)" width="449.937" rx="4" ry="4" height="323.8438" stroke="none"/>
    </g>
    <g text-rendering="geometricPrecision" stroke-miterlimit="1.45" shape-rendering="geometricPrecision" transform="matrix(1,0,0,1,-103,-60)" stroke-linecap="butt">
      <rect x="570.7715" y="665.195" clip-path="url(#clipPath2)" fill="none" width="449.937" rx="4" ry="4" height="323.8438"/>
      <text x="576.7715" xml:space="preserve" y="682.3337" clip-path="url(#clipPath2)" font-family="sans-serif" stroke="none">Learning from Demonstrations</text>
    </g>
    <g fill="rgb(255,204,0)" text-rendering="geometricPrecision" shape-rendering="geometricPrecision" transform="matrix(1,0,0,1,-103,-60)" stroke="rgb(255,204,0)">
      <rect x="805.0197" width="200" height="271.8898" y="703.0075" clip-path="url(#clipPath2)" stroke="none"/>
    </g>
    <g text-rendering="geometricPrecision" stroke-miterlimit="1.45" shape-rendering="geometricPrecision" transform="matrix(1,0,0,1,-103,-60)" stroke-linecap="butt">
      <rect fill="none" x="805.0197" width="200" height="271.8898" y="703.0075" clip-path="url(#clipPath2)"/>
      <text x="808.5861" xml:space="preserve" y="720.1462" clip-path="url(#clipPath2)" font-family="sans-serif" stroke="none">Inverse Reinforcement Learning</text>
    </g>
    <g fill="rgb(204,255,204)" text-rendering="geometricPrecision" shape-rendering="geometricPrecision" transform="matrix(1,0,0,1,-103,-60)" stroke="rgb(204,255,204)">
      <rect x="828.5197" width="153" height="30" y="776.1027" clip-path="url(#clipPath2)" stroke="none"/>
    </g>
    <g text-rendering="geometricPrecision" stroke-miterlimit="1.45" shape-rendering="geometricPrecision" transform="matrix(1,0,0,1,-103,-60)" stroke-linecap="butt">
      <rect fill="none" x="828.5197" width="153" height="30" y="776.1027" clip-path="url(#clipPath2)"/>
      <text x="875.1135" xml:space="preserve" y="795.257" clip-path="url(#clipPath2)" font-family="sans-serif" stroke="none">Projection</text>
    </g>
    <g fill="rgb(204,255,204)" text-rendering="geometricPrecision" shape-rendering="geometricPrecision" transform="matrix(1,0,0,1,-103,-60)" stroke="rgb(204,255,204)">
      <rect x="828.5197" width="153" height="30" y="815.2277" clip-path="url(#clipPath2)" stroke="none"/>
    </g>
    <g text-rendering="geometricPrecision" stroke-miterlimit="1.45" shape-rendering="geometricPrecision" transform="matrix(1,0,0,1,-103,-60)" stroke-linecap="butt">
      <rect fill="none" x="828.5197" width="153" height="30" y="815.2277" clip-path="url(#clipPath2)"/>
      <text x="852.9504" xml:space="preserve" y="834.382" clip-path="url(#clipPath2)" font-family="sans-serif" stroke="none">Maximum Margin</text>
    </g>
    <g fill="rgb(204,255,204)" text-rendering="geometricPrecision" shape-rendering="geometricPrecision" transform="matrix(1,0,0,1,-103,-60)" stroke="rgb(204,255,204)">
      <rect x="828.5197" width="153" height="30" y="892.7589" clip-path="url(#clipPath2)" stroke="none"/>
    </g>
    <g text-rendering="geometricPrecision" stroke-miterlimit="1.45" shape-rendering="geometricPrecision" transform="matrix(1,0,0,1,-103,-60)" stroke-linecap="butt">
      <rect fill="none" x="828.5197" width="153" height="30" y="892.7589" clip-path="url(#clipPath2)"/>
      <text x="850.1057" xml:space="preserve" y="911.9132" clip-path="url(#clipPath2)" font-family="sans-serif" stroke="none">Maximum Entropy</text>
    </g>
    <g fill="rgb(255,204,153)" text-rendering="geometricPrecision" shape-rendering="geometricPrecision" transform="matrix(1,0,0,1,-103,-60)" stroke="rgb(255,204,153)">
      <rect x="828.5197" width="153" height="30" y="853.9933" clip-path="url(#clipPath2)" stroke="none"/>
    </g>
    <g text-rendering="geometricPrecision" stroke-miterlimit="1.45" shape-rendering="geometricPrecision" transform="matrix(1,0,0,1,-103,-60)" stroke-linecap="butt">
      <rect fill="none" x="828.5197" width="153" height="30" y="853.9933" clip-path="url(#clipPath2)"/>
      <text x="866.5236" xml:space="preserve" y="873.1476" clip-path="url(#clipPath2)" font-family="sans-serif" stroke="none">Bayesian IRL</text>
    </g>
    <g fill="rgb(204,255,204)" text-rendering="geometricPrecision" shape-rendering="geometricPrecision" transform="matrix(1,0,0,1,-103,-60)" stroke="rgb(204,255,204)">
      <rect x="828.5197" width="153" height="30" y="931.5245" clip-path="url(#clipPath2)" stroke="none"/>
    </g>
    <g text-rendering="geometricPrecision" stroke-miterlimit="1.45" shape-rendering="geometricPrecision" transform="matrix(1,0,0,1,-103,-60)" stroke-linecap="butt">
      <rect fill="none" x="828.5197" width="153" height="30" y="931.5245" clip-path="url(#clipPath2)"/>
      <text x="891.1535" xml:space="preserve" y="950.6788" clip-path="url(#clipPath2)" font-family="sans-serif" stroke="none">GAIL</text>
    </g>
    <g fill="rgb(255,204,0)" text-rendering="geometricPrecision" shape-rendering="geometricPrecision" transform="matrix(1,0,0,1,-103,-60)" stroke="rgb(255,204,0)">
      <rect x="588.1087" width="200" height="255.3125" y="703.0075" clip-path="url(#clipPath2)" stroke="none"/>
    </g>
    <g text-rendering="geometricPrecision" stroke-miterlimit="1.45" shape-rendering="geometricPrecision" transform="matrix(1,0,0,1,-103,-60)" stroke-linecap="butt">
      <rect fill="none" x="588.1087" width="200" height="255.3125" y="703.0075" clip-path="url(#clipPath2)"/>
      <text x="633.139" xml:space="preserve" y="720.1462" clip-path="url(#clipPath2)" font-family="sans-serif" stroke="none">Imitation Learning</text>
    </g>
    <g fill="rgb(255,204,153)" text-rendering="geometricPrecision" shape-rendering="geometricPrecision" transform="matrix(1,0,0,1,-103,-60)" stroke="rgb(255,204,153)">
      <rect x="607.1712" width="157.4375" height="49.7175" y="738.695" clip-path="url(#clipPath2)" stroke="none"/>
    </g>
    <g text-rendering="geometricPrecision" stroke-miterlimit="1.45" shape-rendering="geometricPrecision" transform="matrix(1,0,0,1,-103,-60)" stroke-linecap="butt">
      <rect fill="none" x="607.1712" width="157.4375" height="49.7175" y="738.695" clip-path="url(#clipPath2)"/>
      <text x="610.8607" xml:space="preserve" y="760.7237" clip-path="url(#clipPath2)" font-family="sans-serif" stroke="none">Supervised Classification</text>
      <text x="615.2347" xml:space="preserve" y="774.6924" clip-path="url(#clipPath2)" font-family="sans-serif" stroke="none">(FCN, CNN, LSTM, GAN)</text>
    </g>
    <g fill="rgb(255,204,153)" text-rendering="geometricPrecision" shape-rendering="geometricPrecision" transform="matrix(1,0,0,1,-103,-60)" stroke="rgb(255,204,153)">
      <rect x="213.3405" width="153" height="30" y="340.8013" clip-path="url(#clipPath2)" stroke="none"/>
    </g>
    <g text-rendering="geometricPrecision" stroke-miterlimit="1.45" shape-rendering="geometricPrecision" transform="matrix(1,0,0,1,-103,-60)" stroke-linecap="butt">
      <rect fill="none" x="213.3405" width="153" height="30" y="340.8013" clip-path="url(#clipPath2)"/>
      <text x="234.6364" xml:space="preserve" y="359.9556" clip-path="url(#clipPath2)" font-family="sans-serif" stroke="none">Prioritized DDDQN</text>
    </g>
    <g fill="rgb(255,204,153)" text-rendering="geometricPrecision" shape-rendering="geometricPrecision" transform="matrix(1,0,0,1,-103,-60)" stroke="rgb(255,204,153)">
      <rect x="607.1712" width="157.4375" height="30" y="860.4889" clip-path="url(#clipPath2)" stroke="none"/>
    </g>
    <g text-rendering="geometricPrecision" stroke-miterlimit="1.45" shape-rendering="geometricPrecision" transform="matrix(1,0,0,1,-103,-60)" stroke-linecap="butt">
      <rect fill="none" x="607.1712" width="157.4375" height="30" y="860.4889" clip-path="url(#clipPath2)"/>
      <text x="669.8148" xml:space="preserve" y="879.6432" clip-path="url(#clipPath2)" font-family="sans-serif" stroke="none">DQfD</text>
    </g>
    <g fill="rgb(153,204,255)" text-rendering="geometricPrecision" shape-rendering="geometricPrecision" transform="matrix(1,0,0,1,-103,-60)" stroke="rgb(153,204,255)">
      <rect x="368.4163" width="153" height="30" y="795.0576" clip-path="url(#clipPath2)" stroke="none"/>
    </g>
    <g text-rendering="geometricPrecision" stroke-miterlimit="1.45" shape-rendering="geometricPrecision" transform="matrix(1,0,0,1,-103,-60)" stroke-linecap="butt">
      <rect fill="none" x="368.4163" width="153" height="30" y="795.0576" clip-path="url(#clipPath2)"/>
      <text x="431.9319" xml:space="preserve" y="814.212" clip-path="url(#clipPath2)" font-family="sans-serif" stroke="none">MPC</text>
    </g>
    <g fill="rgb(153,204,255)" text-rendering="geometricPrecision" shape-rendering="geometricPrecision" transform="matrix(1,0,0,1,-103,-60)" stroke="rgb(153,204,255)">
      <rect x="607.1712" width="157.4375" height="49.7175" y="799.592" clip-path="url(#clipPath2)" stroke="none"/>
    </g>
    <g text-rendering="geometricPrecision" stroke-miterlimit="1.45" shape-rendering="geometricPrecision" transform="matrix(1,0,0,1,-103,-60)" stroke-linecap="butt">
      <rect fill="none" x="607.1712" width="157.4375" height="49.7175" y="799.592" clip-path="url(#clipPath2)"/>
      <text x="617.3411" xml:space="preserve" y="821.6206" clip-path="url(#clipPath2)" font-family="sans-serif" stroke="none">Supervised Regression</text>
      <text x="615.2347" xml:space="preserve" y="835.5894" clip-path="url(#clipPath2)" font-family="sans-serif" stroke="none">(FCN, CNN, LSTM, GAN)</text>
    </g>
    <g fill="rgb(204,255,204)" text-rendering="geometricPrecision" shape-rendering="geometricPrecision" transform="matrix(1,0,0,1,-103,-60)" stroke="rgb(204,255,204)">
      <rect x="828.5197" width="153" height="30" y="736.9777" clip-path="url(#clipPath2)" stroke="none"/>
    </g>
    <g text-rendering="geometricPrecision" stroke-miterlimit="1.45" shape-rendering="geometricPrecision" transform="matrix(1,0,0,1,-103,-60)" stroke-linecap="butt">
      <rect fill="none" x="828.5197" width="153" height="30" y="736.9777" clip-path="url(#clipPath2)"/>
      <text x="880.9318" xml:space="preserve" y="756.132" clip-path="url(#clipPath2)" font-family="sans-serif" stroke="none">MAP IRL</text>
    </g>
    <g fill="rgb(153,204,255)" text-rendering="geometricPrecision" shape-rendering="geometricPrecision" transform="matrix(1,0,0,1,-103,-60)" stroke="rgb(153,204,255)">
      <rect x="137.8121" width="153" height="30" y="609.2974" clip-path="url(#clipPath2)" stroke="none"/>
    </g>
    <g text-rendering="geometricPrecision" stroke-miterlimit="1.45" shape-rendering="geometricPrecision" font-family="sans-serif" transform="matrix(1,0,0,1,-103,-60)" stroke-linecap="butt">
      <text x="156.9224" xml:space="preserve" y="628.4517" clip-path="url(#clipPath2)" stroke="none">Continuous actions</text>
    </g>
    <g fill="rgb(255,204,153)" text-rendering="geometricPrecision" shape-rendering="geometricPrecision" transform="matrix(1,0,0,1,-103,-60)" stroke="rgb(255,204,153)">
      <rect x="137.8121" width="153" height="30" y="567.9375" clip-path="url(#clipPath2)" stroke="none"/>
    </g>
    <g text-rendering="geometricPrecision" stroke-miterlimit="1.45" shape-rendering="geometricPrecision" font-family="sans-serif" transform="matrix(1,0,0,1,-103,-60)" stroke-linecap="butt">
      <text x="165.8961" xml:space="preserve" y="587.0918" clip-path="url(#clipPath2)" stroke="none">Discrete actions</text>
    </g>
    <g fill="rgb(153,204,255)" text-rendering="geometricPrecision" shape-rendering="geometricPrecision" transform="matrix(1,0,0,1,-103,-60)" stroke="rgb(153,204,255)">
      <rect x="368.4163" width="153" height="30" y="831.9951" clip-path="url(#clipPath2)" stroke="none"/>
    </g>
    <g text-rendering="geometricPrecision" stroke-miterlimit="1.45" shape-rendering="geometricPrecision" transform="matrix(1,0,0,1,-103,-60)" stroke-linecap="butt">
      <rect fill="none" x="368.4163" width="153" height="30" y="831.9951" clip-path="url(#clipPath2)"/>
      <text x="437.1234" xml:space="preserve" y="851.1495" clip-path="url(#clipPath2)" font-family="sans-serif" stroke="none">PI²</text>
    </g>
    <g fill="rgb(255,204,0)" text-rendering="geometricPrecision" shape-rendering="geometricPrecision" transform="matrix(1,0,0,1,-103,-60)" stroke="rgb(255,204,0)">
      <rect x="701.3435" width="200" height="157.7453" y="408.3881" clip-path="url(#clipPath2)" stroke="none"/>
    </g>
    <g text-rendering="geometricPrecision" stroke-miterlimit="1.45" shape-rendering="geometricPrecision" transform="matrix(1,0,0,1,-103,-60)" stroke-linecap="butt">
      <rect fill="none" x="701.3435" width="200" height="157.7453" y="408.3881" clip-path="url(#clipPath2)"/>
      <text x="756.2819" xml:space="preserve" y="425.5268" clip-path="url(#clipPath2)" font-family="sans-serif" stroke="none">Derivative-free</text>
    </g>
    <g fill="rgb(153,204,255)" text-rendering="geometricPrecision" shape-rendering="geometricPrecision" transform="matrix(1,0,0,1,-103,-60)" stroke="rgb(153,204,255)">
      <rect x="724.8435" width="153" height="30" y="440.6189" clip-path="url(#clipPath2)" stroke="none"/>
    </g>
    <g text-rendering="geometricPrecision" stroke-miterlimit="1.45" shape-rendering="geometricPrecision" transform="matrix(1,0,0,1,-103,-60)" stroke-linecap="butt">
      <rect fill="none" x="724.8435" width="153" height="30" y="440.6189" clip-path="url(#clipPath2)"/>
      <text x="788.1862" xml:space="preserve" y="459.7732" clip-path="url(#clipPath2)" font-family="sans-serif" stroke="none">CEM</text>
    </g>
    <g fill="rgb(153,204,255)" text-rendering="geometricPrecision" shape-rendering="geometricPrecision" transform="matrix(1,0,0,1,-103,-60)" stroke="rgb(153,204,255)">
      <rect x="724.8435" width="153" height="30" y="482.1189" clip-path="url(#clipPath2)" stroke="none"/>
    </g>
    <g text-rendering="geometricPrecision" stroke-miterlimit="1.45" shape-rendering="geometricPrecision" transform="matrix(1,0,0,1,-103,-60)" stroke-linecap="butt">
      <rect fill="none" x="724.8435" width="153" height="30" y="482.1189" clip-path="url(#clipPath2)"/>
      <text x="780.2731" xml:space="preserve" y="501.2732" clip-path="url(#clipPath2)" font-family="sans-serif" stroke="none">CMAES</text>
    </g>
    <g fill="rgb(153,204,255)" text-rendering="geometricPrecision" shape-rendering="geometricPrecision" transform="matrix(1,0,0,1,-103,-60)" stroke="rgb(153,204,255)">
      <rect x="724.8435" width="153" height="30" y="523.6189" clip-path="url(#clipPath2)" stroke="none"/>
    </g>
    <g text-rendering="geometricPrecision" stroke-miterlimit="1.45" shape-rendering="geometricPrecision" transform="matrix(1,0,0,1,-103,-60)" stroke-linecap="butt">
      <rect fill="none" x="724.8435" width="153" height="30" y="523.6189" clip-path="url(#clipPath2)"/>
      <text x="785.2946" xml:space="preserve" y="542.7731" clip-path="url(#clipPath2)" font-family="sans-serif" stroke="none">NEAT</text>
    </g>
    <g fill="rgb(153,204,255)" text-rendering="geometricPrecision" shape-rendering="geometricPrecision" transform="matrix(1,0,0,1,-103,-60)" stroke="rgb(153,204,255)">
      <rect x="724.8435" width="153" height="30" y="244.3875" clip-path="url(#clipPath2)" stroke="none"/>
    </g>
    <g text-rendering="geometricPrecision" stroke-miterlimit="1.45" shape-rendering="geometricPrecision" transform="matrix(1,0,0,1,-103,-60)" stroke-linecap="butt">
      <rect fill="none" x="724.8435" width="153" height="30" y="244.3875" clip-path="url(#clipPath2)"/>
      <text x="751.1901" xml:space="preserve" y="263.5418" clip-path="url(#clipPath2)" font-family="sans-serif" stroke="none">Natural Gradient</text>
    </g>
  </g>
</svg>
