<?xml version="1.0" encoding="UTF-8"?><svg xmlns="http://www.w3.org/2000/svg" xmlns:xlink="http://www.w3.org/1999/xlink" fill-opacity="1" color-rendering="auto" color-interpolation="auto" text-rendering="auto" stroke="black" stroke-linecap="square" width="889" stroke-miterlimit="10" shape-rendering="auto" stroke-opacity="1" fill="black" stroke-dasharray="none" font-weight="normal" stroke-width="1" height="1082" font-family="'Dialog'" font-style="normal" stroke-linejoin="miter" font-size="12px" stroke-dashoffset="0" image-rendering="auto">
  <!--Generated by ySVG 2.5-->
  <defs id="genericDefs"/>
  <g>
    <defs id="defs1">
      <clipPath clipPathUnits="userSpaceOnUse" id="clipPath1">
        <path d="M0 0 L889 0 L889 1082 L0 1082 L0 0 Z"/>
      </clipPath>
      <clipPath clipPathUnits="userSpaceOnUse" id="clipPath2">
        <path d="M103 60 L992 60 L992 1142 L103 1142 L103 60 Z"/>
      </clipPath>
    </defs>
    <g fill="white" text-rendering="geometricPrecision" shape-rendering="geometricPrecision" transform="translate(-103,-60)" stroke="white">
      <rect x="103" width="889" height="1082" y="60" clip-path="url(#clipPath2)" stroke="none"/>
    </g>
    <g fill="silver" text-rendering="geometricPrecision" shape-rendering="geometricPrecision" transform="matrix(1,0,0,1,-103,-60)" stroke="silver">
      <rect x="118.5" y="572.4678" clip-path="url(#clipPath2)" width="858.4375" rx="4" ry="4" height="213.8125" stroke="none"/>
    </g>
    <g text-rendering="geometricPrecision" stroke-miterlimit="1.45" shape-rendering="geometricPrecision" transform="matrix(1,0,0,1,-103,-60)" stroke-linecap="butt">
      <rect x="118.5" y="572.4678" clip-path="url(#clipPath2)" fill="none" width="858.4375" rx="4" ry="4" height="213.8125"/>
      <text x="124.5" xml:space="preserve" y="589.6064" clip-path="url(#clipPath2)" font-family="sans-serif" stroke="none">Model-based</text>
    </g>
    <g fill="silver" text-rendering="geometricPrecision" shape-rendering="geometricPrecision" transform="matrix(1,0,0,1,-103,-60)" stroke="silver">
      <rect x="118.5" y="75.75" clip-path="url(#clipPath2)" width="858.4375" rx="4" ry="4" height="480.7803" stroke="none"/>
    </g>
    <g text-rendering="geometricPrecision" stroke-miterlimit="1.45" shape-rendering="geometricPrecision" transform="matrix(1,0,0,1,-103,-60)" stroke-linecap="butt">
      <rect x="118.5" y="75.75" clip-path="url(#clipPath2)" fill="none" width="858.4375" rx="4" ry="4" height="480.7803"/>
      <text x="124.5" xml:space="preserve" y="92.8887" clip-path="url(#clipPath2)" font-family="sans-serif" stroke="none">Model-Free</text>
      <ellipse rx="288.7188" fill="none" ry="224.875" clip-path="url(#clipPath2)" cx="418.4062" cy="313.0625"/>
      <text x="381.1875" xml:space="preserve" y="116.3262" clip-path="url(#clipPath2)" font-family="sans-serif" stroke="none">Value-based</text>
      <ellipse rx="285.5938" fill="none" ry="224.875" clip-path="url(#clipPath2)" cx="672.7812" cy="313.0625"/>
      <text x="635.0322" xml:space="preserve" y="116.3262" clip-path="url(#clipPath2)" font-family="sans-serif" stroke="none">Policy-based</text>
    </g>
    <g fill="rgb(255,204,0)" text-rendering="geometricPrecision" shape-rendering="geometricPrecision" transform="matrix(1,0,0,1,-103,-60)" stroke="rgb(255,204,0)">
      <rect x="166.1875" width="200" height="181.25" y="223.75" clip-path="url(#clipPath2)" stroke="none"/>
    </g>
    <g text-rendering="geometricPrecision" stroke-miterlimit="1.45" shape-rendering="geometricPrecision" transform="matrix(1,0,0,1,-103,-60)" stroke-linecap="butt">
      <rect fill="none" x="166.1875" width="200" height="181.25" y="223.75" clip-path="url(#clipPath2)"/>
      <text x="234.7168" xml:space="preserve" y="240.8887" clip-path="url(#clipPath2)" font-family="sans-serif" stroke="none">Q-learning</text>
    </g>
    <g fill="rgb(255,204,153)" text-rendering="geometricPrecision" shape-rendering="geometricPrecision" transform="matrix(1,0,0,1,-103,-60)" stroke="rgb(255,204,153)">
      <rect x="192.1875" width="153" height="30" y="244.75" clip-path="url(#clipPath2)" stroke="none"/>
    </g>
    <g text-rendering="geometricPrecision" stroke-miterlimit="1.45" shape-rendering="geometricPrecision" transform="matrix(1,0,0,1,-103,-60)" stroke-linecap="butt">
      <rect fill="none" x="192.1875" width="153" height="30" y="244.75" clip-path="url(#clipPath2)"/>
      <text x="254.8564" xml:space="preserve" y="263.9043" clip-path="url(#clipPath2)" font-family="sans-serif" stroke="none">DQN</text>
    </g>
    <g fill="rgb(255,204,153)" text-rendering="geometricPrecision" shape-rendering="geometricPrecision" transform="matrix(1,0,0,1,-103,-60)" stroke="rgb(255,204,153)">
      <rect x="192.1875" width="153" height="30" y="283.75" clip-path="url(#clipPath2)" stroke="none"/>
    </g>
    <g text-rendering="geometricPrecision" stroke-miterlimit="1.45" shape-rendering="geometricPrecision" transform="matrix(1,0,0,1,-103,-60)" stroke-linecap="butt">
      <rect fill="none" x="192.1875" width="153" height="30" y="283.75" clip-path="url(#clipPath2)"/>
      <text x="231.6885" xml:space="preserve" y="302.9043" clip-path="url(#clipPath2)" font-family="sans-serif" stroke="none">Double DQN</text>
    </g>
    <g fill="rgb(255,204,153)" text-rendering="geometricPrecision" shape-rendering="geometricPrecision" transform="matrix(1,0,0,1,-103,-60)" stroke="rgb(255,204,153)">
      <rect x="192.1875" width="153" height="30" y="322.75" clip-path="url(#clipPath2)" stroke="none"/>
    </g>
    <g text-rendering="geometricPrecision" stroke-miterlimit="1.45" shape-rendering="geometricPrecision" transform="matrix(1,0,0,1,-103,-60)" stroke-linecap="butt">
      <rect fill="none" x="192.1875" width="153" height="30" y="322.75" clip-path="url(#clipPath2)"/>
      <text x="225.2695" xml:space="preserve" y="341.9043" clip-path="url(#clipPath2)" font-family="sans-serif" stroke="none">Dueling DDQN</text>
    </g>
    <g fill="rgb(255,204,0)" text-rendering="geometricPrecision" shape-rendering="geometricPrecision" transform="matrix(1,0,0,1,-103,-60)" stroke="rgb(255,204,0)">
      <rect x="165.0116" width="200" height="139" y="609.874" clip-path="url(#clipPath2)" stroke="none"/>
    </g>
    <g text-rendering="geometricPrecision" stroke-miterlimit="1.45" shape-rendering="geometricPrecision" transform="matrix(1,0,0,1,-103,-60)" stroke-linecap="butt">
      <rect fill="none" x="165.0116" width="200" height="139" y="609.874" clip-path="url(#clipPath2)"/>
      <text x="195.9677" xml:space="preserve" y="627.0127" clip-path="url(#clipPath2)" font-family="sans-serif" stroke="none">Dynamic Programming</text>
      <text x="239.1659" xml:space="preserve" y="640.9814" clip-path="url(#clipPath2)" font-family="sans-serif" stroke="none">Planning</text>
    </g>
    <g fill="rgb(255,204,153)" text-rendering="geometricPrecision" shape-rendering="geometricPrecision" transform="matrix(1,0,0,1,-103,-60)" stroke="rgb(255,204,153)">
      <rect x="188.5116" width="153" height="30" y="653.874" clip-path="url(#clipPath2)" stroke="none"/>
    </g>
    <g text-rendering="geometricPrecision" stroke-miterlimit="1.45" shape-rendering="geometricPrecision" transform="matrix(1,0,0,1,-103,-60)" stroke-linecap="butt">
      <rect fill="none" x="188.5116" width="153" height="30" y="653.874" clip-path="url(#clipPath2)"/>
      <text x="220.7118" xml:space="preserve" y="673.0283" clip-path="url(#clipPath2)" font-family="sans-serif" stroke="none">Value Iteration</text>
    </g>
    <g fill="rgb(255,204,153)" text-rendering="geometricPrecision" shape-rendering="geometricPrecision" transform="matrix(1,0,0,1,-103,-60)" stroke="rgb(255,204,153)">
      <rect x="188.5116" width="153" height="30" y="692.874" clip-path="url(#clipPath2)" stroke="none"/>
    </g>
    <g text-rendering="geometricPrecision" stroke-miterlimit="1.45" shape-rendering="geometricPrecision" transform="matrix(1,0,0,1,-103,-60)" stroke-linecap="butt">
      <rect fill="none" x="188.5116" width="153" height="30" y="692.874" clip-path="url(#clipPath2)"/>
      <text x="220.1815" xml:space="preserve" y="712.0283" clip-path="url(#clipPath2)" font-family="sans-serif" stroke="none">Policy Iteration</text>
    </g>
    <g fill="rgb(255,204,0)" text-rendering="geometricPrecision" shape-rendering="geometricPrecision" transform="matrix(1,0,0,1,-103,-60)" stroke="rgb(255,204,0)">
      <rect x="715.25" width="200" height="200" y="210.7188" clip-path="url(#clipPath2)" stroke="none"/>
    </g>
    <g text-rendering="geometricPrecision" stroke-miterlimit="1.45" shape-rendering="geometricPrecision" transform="matrix(1,0,0,1,-103,-60)" stroke-linecap="butt">
      <rect fill="none" x="715.25" width="200" height="200" y="210.7188" clip-path="url(#clipPath2)"/>
      <text x="770.5957" xml:space="preserve" y="227.8574" clip-path="url(#clipPath2)" font-family="sans-serif" stroke="none">Policy gradient</text>
    </g>
    <g fill="rgb(153,204,255)" text-rendering="geometricPrecision" shape-rendering="geometricPrecision" transform="matrix(1,0,0,1,-103,-60)" stroke="rgb(153,204,255)">
      <rect x="738.75" width="153" height="30" y="241.7188" clip-path="url(#clipPath2)" stroke="none"/>
    </g>
    <g text-rendering="geometricPrecision" stroke-miterlimit="1.45" shape-rendering="geometricPrecision" transform="matrix(1,0,0,1,-103,-60)" stroke-linecap="butt">
      <rect fill="none" x="738.75" width="153" height="30" y="241.7188" clip-path="url(#clipPath2)"/>
      <text x="780.709" xml:space="preserve" y="260.873" clip-path="url(#clipPath2)" font-family="sans-serif" stroke="none">REINFORCE</text>
    </g>
    <g fill="rgb(255,204,0)" text-rendering="geometricPrecision" shape-rendering="geometricPrecision" transform="matrix(1,0,0,1,-103,-60)" stroke="rgb(255,204,0)">
      <rect x="448.1875" width="200" height="150" y="184.75" clip-path="url(#clipPath2)" stroke="none"/>
    </g>
    <g text-rendering="geometricPrecision" stroke-miterlimit="1.45" shape-rendering="geometricPrecision" transform="matrix(1,0,0,1,-103,-60)" stroke-linecap="butt">
      <rect fill="none" x="448.1875" width="200" height="150" y="184.75" clip-path="url(#clipPath2)"/>
      <text x="514.4873" xml:space="preserve" y="201.8887" clip-path="url(#clipPath2)" font-family="sans-serif" stroke="none">Actor-Critic</text>
    </g>
    <g fill="rgb(153,204,255)" text-rendering="geometricPrecision" shape-rendering="geometricPrecision" transform="matrix(1,0,0,1,-103,-60)" stroke="rgb(153,204,255)">
      <rect x="738.75" width="153" height="30" y="283.2188" clip-path="url(#clipPath2)" stroke="none"/>
    </g>
    <g text-rendering="geometricPrecision" stroke-miterlimit="1.45" shape-rendering="geometricPrecision" transform="matrix(1,0,0,1,-103,-60)" stroke-linecap="butt">
      <rect fill="none" x="738.75" width="153" height="30" y="283.2188" clip-path="url(#clipPath2)"/>
      <text x="803.1738" xml:space="preserve" y="302.373" clip-path="url(#clipPath2)" font-family="sans-serif" stroke="none">GPS</text>
    </g>
    <g fill="rgb(153,204,255)" text-rendering="geometricPrecision" shape-rendering="geometricPrecision" transform="matrix(1,0,0,1,-103,-60)" stroke="rgb(153,204,255)">
      <rect x="738.75" width="153" height="30" y="324.7188" clip-path="url(#clipPath2)" stroke="none"/>
    </g>
    <g text-rendering="geometricPrecision" stroke-miterlimit="1.45" shape-rendering="geometricPrecision" transform="matrix(1,0,0,1,-103,-60)" stroke-linecap="butt">
      <rect fill="none" x="738.75" width="153" height="30" y="324.7188" clip-path="url(#clipPath2)"/>
      <text x="799.0752" xml:space="preserve" y="343.873" clip-path="url(#clipPath2)" font-family="sans-serif" stroke="none">TRPO</text>
    </g>
    <g fill="rgb(153,204,255)" text-rendering="geometricPrecision" shape-rendering="geometricPrecision" transform="matrix(1,0,0,1,-103,-60)" stroke="rgb(153,204,255)">
      <rect x="471.6875" width="153" height="30" y="210.75" clip-path="url(#clipPath2)" stroke="none"/>
    </g>
    <g text-rendering="geometricPrecision" stroke-miterlimit="1.45" shape-rendering="geometricPrecision" transform="matrix(1,0,0,1,-103,-60)" stroke-linecap="butt">
      <rect fill="none" x="471.6875" width="153" height="30" y="210.75" clip-path="url(#clipPath2)"/>
      <text x="495.8398" xml:space="preserve" y="229.9043" clip-path="url(#clipPath2)" font-family="sans-serif" stroke="none">Critic-REINFORCE</text>
    </g>
    <g fill="rgb(153,204,255)" text-rendering="geometricPrecision" shape-rendering="geometricPrecision" transform="matrix(1,0,0,1,-103,-60)" stroke="rgb(153,204,255)">
      <rect x="471.6875" width="153" height="30" y="248.75" clip-path="url(#clipPath2)" stroke="none"/>
    </g>
    <g text-rendering="geometricPrecision" stroke-miterlimit="1.45" shape-rendering="geometricPrecision" transform="matrix(1,0,0,1,-103,-60)" stroke-linecap="butt">
      <rect fill="none" x="471.6875" width="153" height="30" y="248.75" clip-path="url(#clipPath2)"/>
      <text x="536.0762" xml:space="preserve" y="267.9043" clip-path="url(#clipPath2)" font-family="sans-serif" stroke="none">A3C</text>
    </g>
    <g fill="rgb(153,204,255)" text-rendering="geometricPrecision" shape-rendering="geometricPrecision" transform="matrix(1,0,0,1,-103,-60)" stroke="rgb(153,204,255)">
      <rect x="471.6875" width="153" height="30" y="286.75" clip-path="url(#clipPath2)" stroke="none"/>
    </g>
    <g text-rendering="geometricPrecision" stroke-miterlimit="1.45" shape-rendering="geometricPrecision" transform="matrix(1,0,0,1,-103,-60)" stroke-linecap="butt">
      <rect fill="none" x="471.6875" width="153" height="30" y="286.75" clip-path="url(#clipPath2)"/>
      <text x="530.6797" xml:space="preserve" y="305.9043" clip-path="url(#clipPath2)" font-family="sans-serif" stroke="none">DDPG</text>
    </g>
    <g fill="rgb(255,204,0)" text-rendering="geometricPrecision" shape-rendering="geometricPrecision" transform="matrix(1,0,0,1,-103,-60)" stroke="rgb(255,204,0)">
      <rect x="448.1875" width="200" height="64" y="368.75" clip-path="url(#clipPath2)" stroke="none"/>
    </g>
    <g text-rendering="geometricPrecision" stroke-miterlimit="1.45" shape-rendering="geometricPrecision" transform="matrix(1,0,0,1,-103,-60)" stroke-linecap="butt">
      <rect fill="none" x="448.1875" width="200" height="64" y="368.75" clip-path="url(#clipPath2)"/>
      <text x="514.4873" xml:space="preserve" y="385.8887" clip-path="url(#clipPath2)" font-family="sans-serif" stroke="none">Critic-Actor</text>
    </g>
    <g fill="rgb(153,204,255)" text-rendering="geometricPrecision" shape-rendering="geometricPrecision" transform="matrix(1,0,0,1,-103,-60)" stroke="rgb(153,204,255)">
      <rect x="471.6875" width="153" height="30" y="396.75" clip-path="url(#clipPath2)" stroke="none"/>
    </g>
    <g text-rendering="geometricPrecision" stroke-miterlimit="1.45" shape-rendering="geometricPrecision" transform="matrix(1,0,0,1,-103,-60)" stroke-linecap="butt">
      <rect fill="none" x="471.6875" width="153" height="30" y="396.75" clip-path="url(#clipPath2)"/>
      <text x="536.1436" xml:space="preserve" y="415.9043" clip-path="url(#clipPath2)" font-family="sans-serif" stroke="none">NAF</text>
    </g>
    <g fill="rgb(153,204,255)" text-rendering="geometricPrecision" shape-rendering="geometricPrecision" transform="matrix(1,0,0,1,-103,-60)" stroke="rgb(153,204,255)">
      <rect x="738.75" width="153" height="30" y="366.2188" clip-path="url(#clipPath2)" stroke="none"/>
    </g>
    <g text-rendering="geometricPrecision" stroke-miterlimit="1.45" shape-rendering="geometricPrecision" transform="matrix(1,0,0,1,-103,-60)" stroke-linecap="butt">
      <rect fill="none" x="738.75" width="153" height="30" y="366.2188" clip-path="url(#clipPath2)"/>
      <text x="803.291" xml:space="preserve" y="385.373" clip-path="url(#clipPath2)" font-family="sans-serif" stroke="none">PPO</text>
    </g>
    <g fill="rgb(255,204,0)" text-rendering="geometricPrecision" shape-rendering="geometricPrecision" transform="matrix(1,0,0,1,-103,-60)" stroke="rgb(255,204,0)">
      <rect x="712.4652" width="200" height="181.25" y="586.5303" clip-path="url(#clipPath2)" stroke="none"/>
    </g>
    <g text-rendering="geometricPrecision" stroke-miterlimit="1.45" shape-rendering="geometricPrecision" transform="matrix(1,0,0,1,-103,-60)" stroke-linecap="butt">
      <rect fill="none" x="712.4652" width="200" height="181.25" y="586.5303" clip-path="url(#clipPath2)"/>
      <text x="767.89" xml:space="preserve" y="603.6689" clip-path="url(#clipPath2)" font-family="sans-serif" stroke="none">Control Theory</text>
    </g>
    <g fill="rgb(153,204,255)" text-rendering="geometricPrecision" shape-rendering="geometricPrecision" transform="matrix(1,0,0,1,-103,-60)" stroke="rgb(153,204,255)">
      <rect x="735.9652" width="153" height="30" y="618.6553" clip-path="url(#clipPath2)" stroke="none"/>
    </g>
    <g text-rendering="geometricPrecision" stroke-miterlimit="1.45" shape-rendering="geometricPrecision" transform="matrix(1,0,0,1,-103,-60)" stroke-linecap="butt">
      <rect fill="none" x="735.9652" width="153" height="30" y="618.6553" clip-path="url(#clipPath2)"/>
      <text x="800.2308" xml:space="preserve" y="637.8096" clip-path="url(#clipPath2)" font-family="sans-serif" stroke="none">LQR</text>
    </g>
    <g fill="rgb(153,204,255)" text-rendering="geometricPrecision" shape-rendering="geometricPrecision" transform="matrix(1,0,0,1,-103,-60)" stroke="rgb(153,204,255)">
      <rect x="735.9652" width="153" height="30" y="692.5303" clip-path="url(#clipPath2)" stroke="none"/>
    </g>
    <g text-rendering="geometricPrecision" stroke-miterlimit="1.45" shape-rendering="geometricPrecision" transform="matrix(1,0,0,1,-103,-60)" stroke-linecap="butt">
      <rect fill="none" x="735.9652" width="153" height="30" y="692.5303" clip-path="url(#clipPath2)"/>
      <text x="798.0834" xml:space="preserve" y="711.6846" clip-path="url(#clipPath2)" font-family="sans-serif" stroke="none">iLQG</text>
    </g>
    <g fill="rgb(153,204,255)" text-rendering="geometricPrecision" shape-rendering="geometricPrecision" transform="matrix(1,0,0,1,-103,-60)" stroke="rgb(153,204,255)">
      <rect x="735.9652" width="153" height="30" y="655.5928" clip-path="url(#clipPath2)" stroke="none"/>
    </g>
    <g text-rendering="geometricPrecision" stroke-miterlimit="1.45" shape-rendering="geometricPrecision" transform="matrix(1,0,0,1,-103,-60)" stroke-linecap="butt">
      <rect fill="none" x="735.9652" width="153" height="30" y="655.5928" clip-path="url(#clipPath2)"/>
      <text x="799.7504" xml:space="preserve" y="674.7471" clip-path="url(#clipPath2)" font-family="sans-serif" stroke="none">LQG</text>
    </g>
    <g fill="rgb(255,204,0)" text-rendering="geometricPrecision" shape-rendering="geometricPrecision" transform="matrix(1,0,0,1,-103,-60)" stroke="rgb(255,204,0)">
      <rect x="438.7384" width="200" height="114" y="622.374" clip-path="url(#clipPath2)" stroke="none"/>
    </g>
    <g text-rendering="geometricPrecision" stroke-miterlimit="1.45" shape-rendering="geometricPrecision" transform="matrix(1,0,0,1,-103,-60)" stroke-linecap="butt">
      <rect fill="none" x="438.7384" width="200" height="114" y="622.374" clip-path="url(#clipPath2)"/>
      <text x="502.9991" xml:space="preserve" y="639.5127" clip-path="url(#clipPath2)" font-family="sans-serif" stroke="none">Imagination</text>
    </g>
    <g fill="rgb(204,255,204)" text-rendering="geometricPrecision" shape-rendering="geometricPrecision" transform="matrix(1,0,0,1,-103,-60)" stroke="rgb(204,255,204)">
      <rect x="462.2384" width="153" height="30" y="651.499" clip-path="url(#clipPath2)" stroke="none"/>
    </g>
    <g text-rendering="geometricPrecision" stroke-miterlimit="1.45" shape-rendering="geometricPrecision" transform="matrix(1,0,0,1,-103,-60)" stroke-linecap="butt">
      <rect fill="none" x="462.2384" width="153" height="30" y="651.499" clip-path="url(#clipPath2)"/>
      <text x="523.088" xml:space="preserve" y="670.6533" clip-path="url(#clipPath2)" font-family="sans-serif" stroke="none">Dyna</text>
    </g>
    <g fill="silver" text-rendering="geometricPrecision" shape-rendering="geometricPrecision" transform="matrix(1,0,0,1,-103,-60)" stroke="silver">
      <rect x="123.3542" y="802.2178" clip-path="url(#clipPath2)" width="477.5" rx="4" ry="4" height="323.8438" stroke="none"/>
    </g>
    <g text-rendering="geometricPrecision" stroke-miterlimit="1.45" shape-rendering="geometricPrecision" transform="matrix(1,0,0,1,-103,-60)" stroke-linecap="butt">
      <rect x="123.3542" y="802.2178" clip-path="url(#clipPath2)" fill="none" width="477.5" rx="4" ry="4" height="323.8438"/>
      <text x="129.3542" xml:space="preserve" y="819.3564" clip-path="url(#clipPath2)" font-family="sans-serif" stroke="none">Imitation Learning</text>
    </g>
    <g fill="rgb(255,204,0)" text-rendering="geometricPrecision" shape-rendering="geometricPrecision" transform="matrix(1,0,0,1,-103,-60)" stroke="rgb(255,204,0)">
      <rect x="382.625" width="200" height="271.8898" y="840.0303" clip-path="url(#clipPath2)" stroke="none"/>
    </g>
    <g text-rendering="geometricPrecision" stroke-miterlimit="1.45" shape-rendering="geometricPrecision" transform="matrix(1,0,0,1,-103,-60)" stroke-linecap="butt">
      <rect fill="none" x="382.625" width="200" height="271.8898" y="840.0303" clip-path="url(#clipPath2)"/>
      <text x="386.1914" xml:space="preserve" y="857.1689" clip-path="url(#clipPath2)" font-family="sans-serif" stroke="none">Inverse Reinforcement Learning</text>
    </g>
    <g fill="rgb(204,255,204)" text-rendering="geometricPrecision" shape-rendering="geometricPrecision" transform="matrix(1,0,0,1,-103,-60)" stroke="rgb(204,255,204)">
      <rect x="406.125" width="153" height="30" y="913.1254" clip-path="url(#clipPath2)" stroke="none"/>
    </g>
    <g text-rendering="geometricPrecision" stroke-miterlimit="1.45" shape-rendering="geometricPrecision" transform="matrix(1,0,0,1,-103,-60)" stroke-linecap="butt">
      <rect fill="none" x="406.125" width="153" height="30" y="913.1254" clip-path="url(#clipPath2)"/>
      <text x="452.7188" xml:space="preserve" y="932.2797" clip-path="url(#clipPath2)" font-family="sans-serif" stroke="none">Projection</text>
    </g>
    <g fill="rgb(204,255,204)" text-rendering="geometricPrecision" shape-rendering="geometricPrecision" transform="matrix(1,0,0,1,-103,-60)" stroke="rgb(204,255,204)">
      <rect x="406.125" width="153" height="30" y="952.2504" clip-path="url(#clipPath2)" stroke="none"/>
    </g>
    <g text-rendering="geometricPrecision" stroke-miterlimit="1.45" shape-rendering="geometricPrecision" transform="matrix(1,0,0,1,-103,-60)" stroke-linecap="butt">
      <rect fill="none" x="406.125" width="153" height="30" y="952.2504" clip-path="url(#clipPath2)"/>
      <text x="430.5557" xml:space="preserve" y="971.4047" clip-path="url(#clipPath2)" font-family="sans-serif" stroke="none">Maximum Margin</text>
    </g>
    <g fill="rgb(204,255,204)" text-rendering="geometricPrecision" shape-rendering="geometricPrecision" transform="matrix(1,0,0,1,-103,-60)" stroke="rgb(204,255,204)">
      <rect x="406.125" width="153" height="30" y="1029.7816" clip-path="url(#clipPath2)" stroke="none"/>
    </g>
    <g text-rendering="geometricPrecision" stroke-miterlimit="1.45" shape-rendering="geometricPrecision" transform="matrix(1,0,0,1,-103,-60)" stroke-linecap="butt">
      <rect fill="none" x="406.125" width="153" height="30" y="1029.7816" clip-path="url(#clipPath2)"/>
      <text x="427.7109" xml:space="preserve" y="1048.9359" clip-path="url(#clipPath2)" font-family="sans-serif" stroke="none">Maximum Entropy</text>
    </g>
    <g fill="rgb(255,204,153)" text-rendering="geometricPrecision" shape-rendering="geometricPrecision" transform="matrix(1,0,0,1,-103,-60)" stroke="rgb(255,204,153)">
      <rect x="406.125" width="153" height="30" y="991.016" clip-path="url(#clipPath2)" stroke="none"/>
    </g>
    <g text-rendering="geometricPrecision" stroke-miterlimit="1.45" shape-rendering="geometricPrecision" transform="matrix(1,0,0,1,-103,-60)" stroke-linecap="butt">
      <rect fill="none" x="406.125" width="153" height="30" y="991.016" clip-path="url(#clipPath2)"/>
      <text x="444.1289" xml:space="preserve" y="1010.1703" clip-path="url(#clipPath2)" font-family="sans-serif" stroke="none">Bayesian IRL</text>
    </g>
    <g fill="rgb(204,255,204)" text-rendering="geometricPrecision" shape-rendering="geometricPrecision" transform="matrix(1,0,0,1,-103,-60)" stroke="rgb(204,255,204)">
      <rect x="406.125" width="153" height="30" y="1068.5473" clip-path="url(#clipPath2)" stroke="none"/>
    </g>
    <g text-rendering="geometricPrecision" stroke-miterlimit="1.45" shape-rendering="geometricPrecision" transform="matrix(1,0,0,1,-103,-60)" stroke-linecap="butt">
      <rect fill="none" x="406.125" width="153" height="30" y="1068.5473" clip-path="url(#clipPath2)"/>
      <text x="468.7588" xml:space="preserve" y="1087.7015" clip-path="url(#clipPath2)" font-family="sans-serif" stroke="none">GAIL</text>
    </g>
    <g fill="rgb(255,204,0)" text-rendering="geometricPrecision" shape-rendering="geometricPrecision" transform="matrix(1,0,0,1,-103,-60)" stroke="rgb(255,204,0)">
      <rect x="147.125" width="200" height="255.3125" y="840.0303" clip-path="url(#clipPath2)" stroke="none"/>
    </g>
    <g text-rendering="geometricPrecision" stroke-miterlimit="1.45" shape-rendering="geometricPrecision" transform="matrix(1,0,0,1,-103,-60)" stroke-linecap="butt">
      <rect fill="none" x="147.125" width="200" height="255.3125" y="840.0303" clip-path="url(#clipPath2)"/>
      <text x="190.623" xml:space="preserve" y="857.1689" clip-path="url(#clipPath2)" font-family="sans-serif" stroke="none">Behavioral Cloning</text>
    </g>
    <g fill="rgb(255,204,153)" text-rendering="geometricPrecision" shape-rendering="geometricPrecision" transform="matrix(1,0,0,1,-103,-60)" stroke="rgb(255,204,153)">
      <rect x="166.1875" width="157.4375" height="49.7175" y="875.7178" clip-path="url(#clipPath2)" stroke="none"/>
    </g>
    <g text-rendering="geometricPrecision" stroke-miterlimit="1.45" shape-rendering="geometricPrecision" transform="matrix(1,0,0,1,-103,-60)" stroke-linecap="butt">
      <rect fill="none" x="166.1875" width="157.4375" height="49.7175" y="875.7178" clip-path="url(#clipPath2)"/>
      <text x="169.877" xml:space="preserve" y="897.7465" clip-path="url(#clipPath2)" font-family="sans-serif" stroke="none">Supervised Classification</text>
      <text x="174.251" xml:space="preserve" y="911.7152" clip-path="url(#clipPath2)" font-family="sans-serif" stroke="none">(FCN, CNN, LSTM, GAN)</text>
    </g>
    <g fill="rgb(255,204,153)" text-rendering="geometricPrecision" shape-rendering="geometricPrecision" transform="matrix(1,0,0,1,-103,-60)" stroke="rgb(255,204,153)">
      <rect x="192.1875" width="153" height="30" y="361.75" clip-path="url(#clipPath2)" stroke="none"/>
    </g>
    <g text-rendering="geometricPrecision" stroke-miterlimit="1.45" shape-rendering="geometricPrecision" transform="matrix(1,0,0,1,-103,-60)" stroke-linecap="butt">
      <rect fill="none" x="192.1875" width="153" height="30" y="361.75" clip-path="url(#clipPath2)"/>
      <text x="213.4834" xml:space="preserve" y="380.9043" clip-path="url(#clipPath2)" font-family="sans-serif" stroke="none">Prioritized DDDQN</text>
    </g>
    <g fill="rgb(255,204,153)" text-rendering="geometricPrecision" shape-rendering="geometricPrecision" transform="matrix(1,0,0,1,-103,-60)" stroke="rgb(255,204,153)">
      <rect x="166.1875" width="157.4375" height="30" y="997.5116" clip-path="url(#clipPath2)" stroke="none"/>
    </g>
    <g text-rendering="geometricPrecision" stroke-miterlimit="1.45" shape-rendering="geometricPrecision" transform="matrix(1,0,0,1,-103,-60)" stroke-linecap="butt">
      <rect fill="none" x="166.1875" width="157.4375" height="30" y="997.5116" clip-path="url(#clipPath2)"/>
      <text x="228.8311" xml:space="preserve" y="1016.6659" clip-path="url(#clipPath2)" font-family="sans-serif" stroke="none">DQfD</text>
    </g>
    <g fill="rgb(153,204,255)" text-rendering="geometricPrecision" shape-rendering="geometricPrecision" transform="matrix(1,0,0,1,-103,-60)" stroke="rgb(153,204,255)">
      <rect x="735.9652" width="153" height="30" y="729.4678" clip-path="url(#clipPath2)" stroke="none"/>
    </g>
    <g text-rendering="geometricPrecision" stroke-miterlimit="1.45" shape-rendering="geometricPrecision" transform="matrix(1,0,0,1,-103,-60)" stroke-linecap="butt">
      <rect fill="none" x="735.9652" width="153" height="30" y="729.4678" clip-path="url(#clipPath2)"/>
      <text x="799.4808" xml:space="preserve" y="748.6221" clip-path="url(#clipPath2)" font-family="sans-serif" stroke="none">MPC</text>
    </g>
    <g fill="rgb(153,204,255)" text-rendering="geometricPrecision" shape-rendering="geometricPrecision" transform="matrix(1,0,0,1,-103,-60)" stroke="rgb(153,204,255)">
      <rect x="166.1875" width="157.4375" height="49.7175" y="936.6147" clip-path="url(#clipPath2)" stroke="none"/>
    </g>
    <g text-rendering="geometricPrecision" stroke-miterlimit="1.45" shape-rendering="geometricPrecision" transform="matrix(1,0,0,1,-103,-60)" stroke-linecap="butt">
      <rect fill="none" x="166.1875" width="157.4375" height="49.7175" y="936.6147" clip-path="url(#clipPath2)"/>
      <text x="176.3574" xml:space="preserve" y="958.6434" clip-path="url(#clipPath2)" font-family="sans-serif" stroke="none">Supervised Regression</text>
      <text x="174.251" xml:space="preserve" y="972.6121" clip-path="url(#clipPath2)" font-family="sans-serif" stroke="none">(FCN, CNN, LSTM, GAN)</text>
    </g>
    <g fill="rgb(204,255,204)" text-rendering="geometricPrecision" shape-rendering="geometricPrecision" transform="matrix(1,0,0,1,-103,-60)" stroke="rgb(204,255,204)">
      <rect x="406.125" width="153" height="30" y="874.0004" clip-path="url(#clipPath2)" stroke="none"/>
    </g>
    <g text-rendering="geometricPrecision" stroke-miterlimit="1.45" shape-rendering="geometricPrecision" transform="matrix(1,0,0,1,-103,-60)" stroke-linecap="butt">
      <rect fill="none" x="406.125" width="153" height="30" y="874.0004" clip-path="url(#clipPath2)"/>
      <text x="458.5371" xml:space="preserve" y="893.1547" clip-path="url(#clipPath2)" font-family="sans-serif" stroke="none">MAP IRL</text>
    </g>
    <g fill="rgb(153,204,255)" text-rendering="geometricPrecision" shape-rendering="geometricPrecision" transform="matrix(1,0,0,1,-103,-60)" stroke="rgb(153,204,255)">
      <rect x="823.9375" width="153" height="30" y="843.5777" clip-path="url(#clipPath2)" stroke="none"/>
    </g>
    <g text-rendering="geometricPrecision" stroke-miterlimit="1.45" shape-rendering="geometricPrecision" font-family="sans-serif" transform="matrix(1,0,0,1,-103,-60)" stroke-linecap="butt">
      <text x="843.0479" xml:space="preserve" y="862.732" clip-path="url(#clipPath2)" stroke="none">Continuous actions</text>
    </g>
    <g fill="rgb(255,204,153)" text-rendering="geometricPrecision" shape-rendering="geometricPrecision" transform="matrix(1,0,0,1,-103,-60)" stroke="rgb(255,204,153)">
      <rect x="823.9375" width="153" height="30" y="802.2178" clip-path="url(#clipPath2)" stroke="none"/>
    </g>
    <g text-rendering="geometricPrecision" stroke-miterlimit="1.45" shape-rendering="geometricPrecision" font-family="sans-serif" transform="matrix(1,0,0,1,-103,-60)" stroke-linecap="butt">
      <text x="852.0215" xml:space="preserve" y="821.3721" clip-path="url(#clipPath2)" stroke="none">Discrete actions</text>
    </g>
  </g>
</svg>
